solid OBJECT
  facet normal 0.915764239495795 0.39634166547365773 0.065491540448026672
    outer loop
      vertex 0.027829056605696678 0.043749991804361343 0.0039970874786376953
      vertex 0.028114998713135719 0.043750002980232239 -1.2913078535348177e-06
      vertex 0.019999995827674866 0.0625 -9.1874875352004892e-07
    endloop
  endfacet
  facet normal 0.91622125604920945 0.39582182381191661 0.062158617727688978
    outer loop
      vertex 0.027829056605696678 0.043749991804361343 0.0039970874786376953
      vertex 0.019999995827674866 0.0625 -9.1874875352004892e-07
      vertex 0.019816653802990913 0.062499985098838806 0.0027016471140086651
    endloop
  endfacet
  facet normal 0.91566002693373705 0.39629641019697137 0.067200225748890313
    outer loop
      vertex 0.035841461271047592 0.02500000037252903 0.0052925273776054382
      vertex 0.036230001598596573 0.02500000037252903 -1.6638668967061676e-06
      vertex 0.028114998713135719 0.043750002980232239 -1.2913078535348177e-06
    endloop
  endfacet
  facet normal 0.91594012060569174 0.39593295653943994 0.065504117357376587
    outer loop
      vertex 0.035841461271047592 0.02500000037252903 0.0052925273776054382
      vertex 0.028114998713135719 0.043750002980232239 -1.2913078535348177e-06
      vertex 0.027829056605696678 0.043749991804361343 0.0039970874786376953
    endloop
  endfacet
  facet normal 0.89663369384244218 0.39673912161607822 0.19658608405927433
    outer loop
      vertex 0.026948744431138039 0.043749984353780746 0.0080122267827391624
      vertex 0.027829056605696678 0.043749991804361343 0.0039970874786376953
      vertex 0.019816653802990913 0.062499985098838806 0.0027016471140086651
    endloop
  endfacet
  facet normal 0.898837663371999 0.39543161618967099 0.18900976647144394
    outer loop
      vertex 0.026948744431138039 0.043749984353780746 0.0080122267827391624
      vertex 0.019816653802990913 0.062499985098838806 0.0027016471140086651
      vertex 0.019227143377065659 0.062499966472387314 0.0055051082745194435
    endloop
  endfacet
  facet normal 0.89576036045386631 0.39665049497747756 0.20070316757261628
    outer loop
      vertex 0.034670345485210419 0.02500000037252903 0.010519346222281456
      vertex 0.035841461271047592 0.02500000037252903 0.0052925273776054382
      vertex 0.027829056605696678 0.043749991804361343 0.0039970874786376953
    endloop
  endfacet
  facet normal 0.89706098100935994 0.39572549416408948 0.19667976413223545
    outer loop
      vertex 0.034670345485210419 0.02500000037252903 0.010519346222281456
      vertex 0.027829056605696678 0.043749991804361343 0.0039970874786376953
      vertex 0.026948744431138039 0.043749984353780746 0.0080122267827391624
    endloop
  endfacet
  facet normal 0.85975837816654743 0.39701828542741313 0.32123513538949178
    outer loop
      vertex 0.025601403787732124 0.043749973177909851 0.011618282645940781
      vertex 0.026948744431138039 0.043749984353780746 0.0080122267827391624
      vertex 0.019227143377065659 0.062499966472387314 0.0055051082745194435
    endloop
  endfacet
  facet normal 0.86353867297612463 0.3955513316166086 0.31279402860502564
    outer loop
      vertex 0.025601403787732124 0.043749973177909851 0.011618282645940781
      vertex 0.019227143377065659 0.062499966472387314 0.0055051082745194435
      vertex 0.018292000517249107 0.062499947845935822 0.0080868052318692207
    endloop
  endfacet
  facet normal 0.8579904062433934 0.39693174307866597 0.32603321016551184
    outer loop
      vertex 0.032910805195569992 0.02500000037252903 0.015149760060012341
      vertex 0.034670345485210419 0.02500000037252903 0.010519346222281456
      vertex 0.026948744431138039 0.043749984353780746 0.0080122267827391624
    endloop
  endfacet
  facet normal 0.8602190627392069 0.39587944900749295 0.32140725871330916
    outer loop
      vertex 0.032910805195569992 0.02500000037252903 0.015149760060012341
      vertex 0.026948744431138039 0.043749984353780746 0.0080122267827391624
      vertex 0.025601403787732124 0.043749973177909851 0.011618282645940781
    endloop
  endfacet
  facet normal 0.80404967124404925 0.39683650248680002 0.44274701180965692
    outer loop
      vertex 0.023498022928833961 0.043749965727329254 0.01543812919408083
      vertex 0.025601403787732124 0.043749973177909851 0.011618282645940781
      vertex 0.018292000517249107 0.062499947845935822 0.0080868052318692207
    endloop
  endfacet
  facet normal 0.80776373218636377 0.39562704891579065 0.43703202529167012
    outer loop
      vertex 0.023498022928833961 0.043749965727329254 0.01543812919408083
      vertex 0.018292000517249107 0.062499947845935822 0.0080868052318692207
      vertex 0.016785433515906334 0.062499929219484329 0.010871401056647301
    endloop
  endfacet
  facet normal 0.80220450790440312 0.39675829349073227 0.44615107760059952
    outer loop
      vertex 0.030210612341761589 0.02500000037252903 0.020004857331514359
      vertex 0.032910805195569992 0.02500000037252903 0.015149760060012341
      vertex 0.025601403787732124 0.043749973177909851 0.011618282645940781
    endloop
  endfacet
  facet normal 0.80441543965236251 0.39586929522477976 0.44294841860777934
    outer loop
      vertex 0.030210612341761589 0.02500000037252903 0.020004857331514359
      vertex 0.025601403787732124 0.043749973177909851 0.011618282645940781
      vertex 0.023498022928833961 0.043749965727329254 0.01543812919408083
    endloop
  endfacet
  facet normal 0.72760452802890663 0.39678281535947985 0.55960258061166668
    outer loop
      vertex 0.020954856649041176 0.043749954551458359 0.018744803965091705
      vertex 0.023498022928833961 0.043749965727329254 0.01543812919408083
      vertex 0.016785433515906334 0.062499929219484329 0.010871401056647301
    endloop
  endfacet
  facet normal 0.7304557014694717 0.39606634162877818 0.55638648547528347
    outer loop
      vertex 0.020954856649041176 0.043749954551458359 0.018744803965091705
      vertex 0.016785433515906334 0.062499929219484329 0.010871401056647301
      vertex 0.014931155368685722 0.062499914318323135 0.013305813074111938
    endloop
  endfacet
  facet normal 0.72610703142970123 0.39672886606555063 0.56158239443441371
    outer loop
      vertex 0.02697855606675148 0.02500000037252903 0.024183796718716621
      vertex 0.030210612341761589 0.02500000037252903 0.020004857331514359
      vertex 0.023498022928833961 0.043749965727329254 0.01543812919408083
    endloop
  endfacet
  facet normal 0.72780636088560413 0.39619325707378594 0.55975780843478984
    outer loop
      vertex 0.02697855606675148 0.02500000037252903 0.024183796718716621
      vertex 0.023498022928833961 0.043749965727329254 0.01543812919408083
      vertex 0.020954856649041176 0.043749954551458359 0.018744803965091705
    endloop
  endfacet
  facet normal 0.636842413270853 0.3964177789692086 0.66127504502776724
    outer loop
      vertex 0.01794922724366188 0.04374995082616806 0.021639384329319
      vertex 0.020954856649041176 0.043749954551458359 0.018744803965091705
      vertex 0.014931155368685722 0.062499914318323135 0.013305813074111938
    endloop
  endfacet
  facet normal 0.63646238451058912 0.39649785409834598 0.66159283913786571
    outer loop
      vertex 0.01794922724366188 0.04374995082616806 0.021639384329319
      vertex 0.014931155368685722 0.062499914318323135 0.013305813074111938
      vertex 0.012720128521323204 0.062499899417161942 0.015432863496243954
    endloop
  endfacet
  facet normal 0.63704661340438196 0.39642515524774985 0.66107390557849532
    outer loop
      vertex 0.023178325966000557 0.02500000037252903 0.027845904231071472
      vertex 0.02697855606675148 0.02500000037252903 0.024183796718716621
      vertex 0.020954856649041176 0.043749954551458359 0.018744803965091705
    endloop
  endfacet
  facet normal 0.63682201550113249 0.39648587221406628 0.66125386479606019
    outer loop
      vertex 0.023178325966000557 0.02500000037252903 0.027845904231071472
      vertex 0.020954856649041176 0.043749954551458359 0.018744803965091705
      vertex 0.01794922724366188 0.04374995082616806 0.021639384329319
    endloop
  endfacet
  facet normal 0.53248281628212446 0.39611310835223112 0.74803506318607205
    outer loop
      vertex 0.014573629945516586 0.043749943375587463 0.02404228039085865
      vertex 0.01794922724366188 0.04374995082616806 0.021639384329319
      vertex 0.012720128521323204 0.062499899417161942 0.015432863496243954
    endloop
  endfacet
  facet normal 0.52831089581267499 0.39687222401853001 0.75058646082126634
    outer loop
      vertex 0.014573629945516586 0.043749943375587463 0.02404228039085865
      vertex 0.012720128521323204 0.062499899417161942 0.015432863496243954
      vertex 0.010238973423838615 0.062499884516000748 0.017179267480969429
    endloop
  endfacet
  facet normal 0.53475619009071551 0.39619521549855524 0.74636798455970499
    outer loop
      vertex 0.018908286467194557 0.02500000037252903 0.030905293300747871
      vertex 0.023178325966000557 0.02500000037252903 0.027845904231071472
      vertex 0.01794922724366188 0.04374995082616806 0.021639384329319
    endloop
  endfacet
  facet normal 0.53231616818023886 0.39677855944924972 0.74780095737788799
    outer loop
      vertex 0.018908286467194557 0.02500000037252903 0.030905293300747871
      vertex 0.01794922724366188 0.04374995082616806 0.021639384329319
      vertex 0.014573629945516586 0.043749943375587463 0.02404228039085865
    endloop
  endfacet
  facet normal 0.41907569164767988 0.39595245559304471 0.81706622594490863
    outer loop
      vertex 0.011020508594810963 0.043749939650297165 0.02586468867957592
      vertex 0.014573629945516586 0.043749943375587463 0.02404228039085865
      vertex 0.010238973423838615 0.062499884516000748 0.017179267480969429
    endloop
  endfacet
  facet normal 0.41207563598167313 0.39705867269904893 0.82008419120524989
    outer loop
      vertex 0.011020508594810963 0.043749939650297165 0.02586468867957592
      vertex 0.010238973423838615 0.062499884516000748 0.017179267480969429
      vertex 0.0076539767906069756 0.062499877065420151 0.018478179350495338
    endloop
  endfacet
  facet normal 0.42288930836064159 0.39608958732441613 0.81503231327808834
    outer loop
      vertex 0.01438704039901495 0.02500000037252903 0.033251196146011353
      vertex 0.018908286467194557 0.02500000037252903 0.030905293300747871
      vertex 0.014573629945516586 0.043749943375587463 0.02404228039085865
    endloop
  endfacet
  facet normal 0.41888072703965962 0.3969417296494292 0.81668610847598344
    outer loop
      vertex 0.01438704039901495 0.02500000037252903 0.033251196146011353
      vertex 0.014573629945516586 0.043749943375587463 0.02404228039085865
      vertex 0.011020508594810963 0.043749939650297165 0.02586468867957592
    endloop
  endfacet
  facet normal 0.29504098612249063 0.39560670904129491 0.86973912656001895
    outer loop
      vertex 0.0069840345531702042 0.043749935925006866 0.027233980596065521
      vertex 0.011020508594810963 0.043749939650297165 0.02586468867957592
      vertex 0.0076539767906069756 0.062499877065420151 0.018478179350495338
    endloop
  endfacet
  facet normal 0.28588419711088664 0.39705268546997829 0.87213496134677593
    outer loop
      vertex 0.0069840345531702042 0.043749935925006866 0.027233980596065521
      vertex 0.0076539767906069756 0.062499877065420151 0.018478179350495338
      vertex 0.0047759679146111012 0.062499869614839554 0.019421588629484177
    endloop
  endfacet
  facet normal 0.29994041887956829 0.39579214190041623 0.8679771457430373
    outer loop
      vertex 0.0091921016573905945 0.02500000037252903 0.035046372562646866
      vertex 0.01438704039901495 0.02500000037252903 0.033251196146011353
      vertex 0.011020508594810963 0.043749939650297165 0.02586468867957592
    endloop
  endfacet
  facet normal 0.29486268456576353 0.39689274221417958 0.86921352292079535
    outer loop
      vertex 0.0091921016573905945 0.02500000037252903 0.035046372562646866
      vertex 0.011020508594810963 0.043749939650297165 0.02586468867957592
      vertex 0.0069840345531702042 0.043749935925006866 0.027233980596065521
    endloop
  endfacet
  facet normal 0.16311249627173394 0.39576709098747359 0.903749259059899
    outer loop
      vertex 0.0030031665228307247 0.043749932199716568 0.027952466160058975
      vertex 0.0069840345531702042 0.043749935925006866 0.027233980596065521
      vertex 0.0047759679146111012 0.062499869614839554 0.019421588629484177
    endloop
  endfacet
  facet normal 0.15646371674135245 0.39673696210926623 0.90449924723008612
    outer loop
      vertex 0.0030031665228307247 0.043749932199716568 0.027952466160058975
      vertex 0.0047759679146111012 0.062499869614839554 0.019421588629484177
      vertex 0.0020317116286605597 0.062499869614839554 0.019896300509572029
    endloop
  endfacet
  facet normal 0.16655247055629846 0.39588848355770068 0.90306842660895714
    outer loop
      vertex 0.0039746211841702461 0.02500000037252903 0.036008629947900772
      vertex 0.0091921016573905945 0.02500000037252903 0.035046372562646866
      vertex 0.0069840345531702042 0.043749935925006866 0.027233980596065521
    endloop
  endfacet
  facet normal 0.16304840601468171 0.39660333385740787 0.90339416251670623
    outer loop
      vertex 0.0039746211841702461 0.02500000037252903 0.036008629947900772
      vertex 0.0069840345531702042 0.043749935925006866 0.027233980596065521
      vertex 0.0030031665228307247 0.043749932199716568 0.027952466160058975
    endloop
  endfacet
  facet normal 0.033102638986244833 0.39599785353951583 0.91765457296536301
    outer loop
      vertex -0.00099769176449626684 0.043749932199716568 0.028096789494156837
      vertex 0.0030031665228307247 0.043749932199716568 0.027952466160058975
      vertex 0.0020317116286605597 0.062499869614839554 0.019896300509572029
    endloop
  endfacet
  facet normal 0.031332177237805202 0.39626134327332235 0.91760298740618806
    outer loop
      vertex -0.00099769176449626684 0.043749932199716568 0.028096789494156837
      vertex 0.0020317116286605597 0.062499869614839554 0.019896300509572029
      vertex -0.00067397340899333358 0.062499865889549255 0.019988689571619034
    endloop
  endfacet
  facet normal 0.034004632760754237 0.39602534465672917 0.91760972713911715
    outer loop
      vertex -0.0013214100617915392 0.02500000037252903 0.036204889416694641
      vertex 0.0039746211841702461 0.02500000037252903 0.036008629947900772
      vertex 0.0030031665228307247 0.043749932199716568 0.027952466160058975
    endloop
  endfacet
  facet normal 0.033099292197094746 0.39621306043710719 0.91756179497356594
    outer loop
      vertex -0.0013214100617915392 0.02500000037252903 0.036204889416694641
      vertex 0.0030031665228307247 0.043749932199716568 0.027952466160058975
      vertex -0.00099769176449626684 0.043749932199716568 0.028096789494156837
    endloop
  endfacet
  facet normal -0.098442817711115335 0.39641545600781297 0.91277806605944145
    outer loop
      vertex -0.0049940082244575024 0.043749935925006866 0.027665786445140839
      vertex -0.00099769176449626684 0.043749932199716568 0.028096789494156837
      vertex -0.00067397340899333358 0.062499865889549255 0.019988689571619034
    endloop
  endfacet
  facet normal -0.093607875157625864 0.39564622703703356 0.91362006804789186
    outer loop
      vertex -0.0049940082244575024 0.043749935925006866 0.027665786445140839
      vertex -0.00067397340899333358 0.062499865889549255 0.019988689571619034
      vertex -0.003395365085452795 0.062499869614839554 0.019709859043359756
    endloop
  endfacet
  facet normal -0.10095644663499281 0.39635205726444422 0.91253100910877472
    outer loop
      vertex -0.0065926513634622097 0.02500000037252903 0.035621713846921921
      vertex -0.0013214100617915392 0.02500000037252903 0.036204889416694641
      vertex -0.00099769176449626684 0.043749932199716568 0.028096789494156837
    endloop
  endfacet
  facet normal -0.098470680541197564 0.39581313970081033 0.91303640864641344
    outer loop
      vertex -0.0065926513634622097 0.02500000037252903 0.035621713846921921
      vertex -0.00099769176449626684 0.043749932199716568 0.028096789494156837
      vertex -0.0049940082244575024 0.043749935925006866 0.027665786445140839
    endloop
  endfacet
  facet normal -0.22737353946719099 0.39674198250069853 0.88932394146991056
    outer loop
      vertex -0.0089367646723985672 0.043749935925006866 0.026657741516828537
      vertex -0.0049940082244575024 0.043749935925006866 0.027665786445140839
      vertex -0.003395365085452795 0.062499869614839554 0.019709859043359756
    endloop
  endfacet
  facet normal -0.22010995787106008 0.39547961042712149 0.89171042619362273
    outer loop
      vertex -0.0089367646723985672 0.043749935925006866 0.026657741516828537
      vertex -0.003395365085452795 0.062499869614839554 0.019709859043359756
      vertex -0.0061583630740642548 0.062499873340129852 0.019027838483452797
    endloop
  endfacet
  facet normal -0.23135062534877987 0.39666091573296142 0.8883338370683721
    outer loop
      vertex -0.011715167202055454 0.02500000037252903 0.034287646412849426
      vertex -0.0065926513634622097 0.02500000037252903 0.035621713846921921
      vertex -0.0049940082244575024 0.043749935925006866 0.027665786445140839
    endloop
  endfacet
  facet normal -0.22747783332823232 0.39576640037292671 0.88973186504707669
    outer loop
      vertex -0.011715167202055454 0.02500000037252903 0.034287646412849426
      vertex -0.0049940082244575024 0.043749935925006866 0.027665786445140839
      vertex -0.0089367646723985672 0.043749935925006866 0.026657741516828537
    endloop
  endfacet
  facet normal -0.35497967922559565 0.39701990221119127 0.84638326104969097
    outer loop
      vertex -0.012739737518131733 0.043749939650297165 0.025062743574380875
      vertex -0.0089367646723985672 0.043749935925006866 0.026657741516828537
      vertex -0.0061583630740642548 0.062499873340129852 0.019027838483452797
    endloop
  endfacet
  facet normal -0.34662244157000105 0.39543655361871488 0.85057793003475268
    outer loop
      vertex -0.012739737518131733 0.043749939650297165 0.025062743574380875
      vertex -0.0061583630740642548 0.062499873340129852 0.019027838483452797
      vertex -0.0088996030390262604 0.062499880790710449 0.01791074126958847
    endloop
  endfacet
  facet normal -0.35980300188891684 0.39692344124439521 0.8443894727093838
    outer loop
      vertex -0.016579871997237206 0.02500000037252903 0.032214745879173279
      vertex -0.011715167202055454 0.02500000037252903 0.034287646412849426
      vertex -0.0089367646723985672 0.043749935925006866 0.026657741516828537
    endloop
  endfacet
  facet normal -0.35518689012294108 0.39577909091127539 0.84687731359520901
    outer loop
      vertex -0.016579871997237206 0.02500000037252903 0.032214745879173279
      vertex -0.0089367646723985672 0.043749935925006866 0.026657741516828537
      vertex -0.012739737518131733 0.043749939650297165 0.025062743574380875
    endloop
  endfacet
  facet normal -0.47525829445453566 0.39686573612684589 0.78525609901525928
    outer loop
      vertex -0.016291068866848946 0.043749947100877762 0.022913377732038498
      vertex -0.012739737518131733 0.043749939650297165 0.025062743574380875
      vertex -0.0088996030390262604 0.062499880790710449 0.01791074126958847
    endloop
  endfacet
  facet normal -0.4697719798507875 0.39573367314311747 0.78911922222673525
    outer loop
      vertex -0.016291068866848946 0.043749947100877762 0.022913377732038498
      vertex -0.0088996030390262604 0.062499880790710449 0.01791074126958847
      vertex -0.011499566957354546 0.062499891966581345 0.016362946480512619
    endloop
  endfacet
  facet normal -0.47855360821474019 0.39679079880282714 0.78329017997806338
    outer loop
      vertex -0.021082568913698196 0.02500000037252903 0.029463808983564377
      vertex -0.016579871997237206 0.02500000037252903 0.032214745879173279
      vertex -0.012739737518131733 0.043749939650297165 0.025062743574380875
    endloop
  endfacet
  facet normal -0.47546180461474508 0.39595546822288019 0.78559234946433232
    outer loop
      vertex -0.021082568913698196 0.02500000037252903 0.029463808983564377
      vertex -0.012739737518131733 0.043749939650297165 0.025062743574380875
      vertex -0.016291068866848946 0.043749947100877762 0.022913377732038498
    endloop
  endfacet
  facet normal -0.58593877128272709 0.39661336706760164 0.70666370599528316
    outer loop
      vertex -0.019506463780999184 0.043749954551458359 0.020247289910912514
      vertex -0.016291068866848946 0.043749947100877762 0.022913377732038498
      vertex -0.011499566957354546 0.062499891966581345 0.016362946480512619
    endloop
  endfacet
  facet normal -0.58392682355462311 0.39615224308148994 0.70858511488381715
    outer loop
      vertex -0.019506463780999184 0.043749954551458359 0.020247289910912514
      vertex -0.011499566957354546 0.062499891966581345 0.016362946480512619
      vertex -0.013867052271962166 0.062499906867742538 0.014411954209208488
    endloop
  endfacet
  facet normal -0.58718728938737219 0.39657712666266975 0.70564698666535197
    outer loop
      vertex -0.025145875290036201 0.02500000037252903 0.026082625612616539
      vertex -0.021082568913698196 0.02500000037252903 0.029463808983564377
      vertex -0.016291068866848946 0.043749947100877762 0.022913377732038498
    endloop
  endfacet
  facet normal -0.58604424776098729 0.39623067098662795 0.70679091323795706
    outer loop
      vertex -0.025145875290036201 0.02500000037252903 0.026082625612616539
      vertex -0.016291068866848946 0.043749947100877762 0.022913377732038498
      vertex -0.019506463780999184 0.043749954551458359 0.020247289910912514
    endloop
  endfacet
  facet normal -0.6844149441864249 0.39630951363460554 0.61197626880214495
    outer loop
      vertex -0.022287791594862938 0.043749962002038956 0.017136735841631889
      vertex -0.019506463780999184 0.043749954551458359 0.020247289910912514
      vertex -0.013867052271962166 0.062499906867742538 0.014411954209208488
    endloop
  endfacet
  facet normal -0.68542893585145814 0.3965748070428472 0.61066815564303523
    outer loop
      vertex -0.022287791594862938 0.043749962002038956 0.017136735841631889
      vertex -0.013867052271962166 0.062499906867742538 0.014411954209208488
      vertex -0.015907164663076401 0.062499921768903732 0.012122072279453278
    endloop
  endfacet
  facet normal -0.68376696832696471 0.39633478761500934 0.61268382478331951
    outer loop
      vertex -0.028668418526649475 0.02500000037252903 0.022151399403810501
      vertex -0.025145875290036201 0.02500000037252903 0.026082625612616539
      vertex -0.019506463780999184 0.043749954551458359 0.020247289910912514
    endloop
  endfacet
  facet normal -0.68434168342755131 0.3965371091098841 0.61191076262991229
    outer loop
      vertex -0.028668418526649475 0.02500000037252903 0.022151399403810501
      vertex -0.019506463780999184 0.043749954551458359 0.020247289910912514
      vertex -0.022287791594862938 0.043749962002038956 0.017136735841631889
    endloop
  endfacet
  facet normal -0.76743676088092394 0.39600761005493218 0.50420114123946258
    outer loop
      vertex -0.0245790034532547 0.043749969452619553 0.013649311847984791
      vertex -0.022287791594862938 0.043749962002038956 0.017136735841631889
      vertex -0.015907164663076401 0.062499921768903732 0.012122072279453278
    endloop
  endfacet
  facet normal -0.77026032870705829 0.39690338358331378 0.49916603462195958
    outer loop
      vertex -0.0245790034532547 0.043749969452619553 0.013649311847984791
      vertex -0.015907164663076401 0.062499921768903732 0.012122072279453278
      vertex -0.017565848305821419 0.062499940395355225 0.0095625519752502441
    endloop
  endfacet
  facet normal -0.76557375925457927 0.39610797560659922 0.50694702958164484
    outer loop
      vertex -0.031592156738042831 0.02500000037252903 0.017736071720719337
      vertex -0.028668418526649475 0.02500000037252903 0.022151399403810501
      vertex -0.022287791594862938 0.043749962002038956 0.017136735841631889
    endloop
  endfacet
  facet normal -0.76715179362673458 0.3967972938770265 0.50401392154101521
    outer loop
      vertex -0.031592156738042831 0.02500000037252903 0.017736071720719337
      vertex -0.022287791594862938 0.043749962002038956 0.017136735841631889
      vertex -0.0245790034532547 0.043749969452619553 0.013649311847984791
    endloop
  endfacet
  facet normal -0.83309001315441511 0.3958203487558753 0.38637712340814612
    outer loop
      vertex -0.026308808475732803 0.043749980628490448 0.0099195679649710655
      vertex -0.0245790034532547 0.043749969452619553 0.013649311847984791
      vertex -0.017565848305821419 0.062499940395355225 0.0095625519752502441
    endloop
  endfacet
  facet normal -0.83638135884775633 0.39719107189389463 0.37776378198519689
    outer loop
      vertex -0.026308808475732803 0.043749980628490448 0.0099195679649710655
      vertex -0.017565848305821419 0.062499940395355225 0.0095625519752502441
      vertex -0.018787132576107979 0.062499959021806717 0.0068585691042244434
    endloop
  endfacet
  facet normal -0.83082373062996118 0.39599178877132502 0.39105297831342517
    outer loop
      vertex -0.033830482512712479 0.02500000037252903 0.012980567291378975
      vertex -0.031592156738042831 0.02500000037252903 0.017736071720719337
      vertex -0.0245790034532547 0.043749969452619553 0.013649311847984791
    endloop
  endfacet
  facet normal -0.83260928291419578 0.39704752653254211 0.38615417086896636
    outer loop
      vertex -0.033830482512712479 0.02500000037252903 0.012980567291378975
      vertex -0.0245790034532547 0.043749969452619553 0.013649311847984791
      vertex -0.026308808475732803 0.043749980628490448 0.0099195679649710655
    endloop
  endfacet
  facet normal -0.88089842135550034 0.39575894520849797 0.25960128763325607
    outer loop
      vertex -0.027468347921967506 0.043749988079071045 0.005984921008348465
      vertex -0.026308808475732803 0.043749980628490448 0.0099195679649710655
      vertex -0.018787132576107979 0.062499959021806717 0.0068585691042244434
    endloop
  endfacet
  facet normal -0.88264227874456902 0.39693123907837013 0.25177013170013679
    outer loop
      vertex -0.027468347921967506 0.043749988079071045 0.005984921008348465
      vertex -0.018787132576107979 0.062499959021806717 0.0068585691042244434
      vertex -0.019578412175178528 0.062499977648258209 0.0040845139883458614
    endloop
  endfacet
  facet normal -0.87959686505487977 0.39591334408620793 0.26374605013175689
    outer loop
      vertex -0.035358283668756485 0.02500000037252903 0.0078853284940123558
      vertex -0.033830482512712479 0.02500000037252903 0.012980567291378975
      vertex -0.026308808475732803 0.043749980628490448 0.0099195679649710655
    endloop
  endfacet
  facet normal -0.88046847300531395 0.39679743993285022 0.25947458393150286
    outer loop
      vertex -0.035358283668756485 0.02500000037252903 0.0078853284940123558
      vertex -0.026308808475732803 0.043749980628490448 0.0099195679649710655
      vertex -0.027468347921967506 0.043749988079071045 0.005984921008348465
    endloop
  endfacet
  facet normal -0.90894357488381661 0.3957687680301637 0.13110552974346193
    outer loop
      vertex -0.028041178360581398 0.04374999925494194 0.0020135021768510342
      vertex -0.027468347921967506 0.043749988079071045 0.005984921008348465
      vertex -0.019578412175178528 0.062499977648258209 0.0040845139883458614
    endloop
  endfacet
  facet normal -0.90939031296311867 0.3966059762522065 0.12535133940199916
    outer loop
      vertex -0.028041178360581398 0.04374999925494194 0.0020135021768510342
      vertex -0.019578412175178528 0.062499977648258209 0.0040845139883458614
      vertex -0.019953202456235886 0.062499996274709702 0.0013654521899297833
    endloop
  endfacet
  facet normal -0.90846865299221435 0.39586865437624147 0.13406235494297189
    outer loop
      vertex -0.03612915426492691 0.02500000037252903 0.0026615520473569632
      vertex -0.035358283668756485 0.02500000037252903 0.0078853284940123558
      vertex -0.027468347921967506 0.043749988079071045 0.005984921008348465
    endloop
  endfacet
  facet normal -0.90864002615062844 0.39647966023555131 0.13106174841076684
    outer loop
      vertex -0.03612915426492691 0.02500000037252903 0.0026615520473569632
      vertex -0.027468347921967506 0.043749988079071045 0.005984921008348465
      vertex -0.028041178360581398 0.04374999925494194 0.0020135021768510342
    endloop
  endfacet
  facet normal -0.91821292118483511 0.39608708566212081 0.00022790546191213569
    outer loop
      vertex -0.028042171150445938 0.043750006705522537 -0.0019993176683783531
      vertex -0.028041178360581398 0.04374999925494194 0.0020135021768510342
      vertex -0.019953202456235886 0.062499996274709702 0.0013654521899297833
    endloop
  endfacet
  facet normal -0.91821343884111228 0.39608588096549768 0.00023586302087320022
    outer loop
      vertex -0.028042171150445938 0.043750006705522537 -0.0019993176683783531
      vertex -0.019953202456235886 0.062499996274709702 0.0013654521899297833
      vertex -0.01995389349758625 0.062500014901161194 -0.0013560474617406726
    endloop
  endfacet
  facet normal -0.91821297999137408 0.39608695132454624 0.00022442323141578412
    outer loop
      vertex -0.036130450665950775 0.02500000037252903 -0.0026425879914313555
      vertex -0.03612915426492691 0.02500000037252903 0.0026615520473569632
      vertex -0.028041178360581398 0.04374999925494194 0.0020135021768510342
    endloop
  endfacet
  facet normal -0.91821329376264738 0.39608622194745607 0.00022790555248592521
    outer loop
      vertex -0.036130450665950775 0.02500000037252903 -0.0026425879914313555
      vertex -0.028041178360581398 0.04374999925494194 0.0020135021768510342
      vertex -0.028042171150445938 0.043750006705522537 -0.0019993176683783531
    endloop
  endfacet
  facet normal -0.90864340030599133 0.39646305305343515 -0.13108859082282859
    outer loop
      vertex -0.027465416118502617 0.043750017881393433 -0.0059970738366246223
      vertex -0.028042171150445938 0.043750006705522537 -0.0019993176683783531
      vertex -0.01995389349758625 0.062500014901161194 -0.0013560474617406726
    endloop
  endfacet
  facet normal -0.90984649694733344 0.39553958058041727 -0.12541049472405949
    outer loop
      vertex -0.027465416118502617 0.043750017881393433 -0.0059970738366246223
      vertex -0.01995389349758625 0.062500014901161194 -0.0013560474617406726
      vertex -0.019576512277126312 0.062500029802322388 -0.0040938812308013439
    endloop
  endfacet
  facet normal -0.90823920924199097 0.39639121111059333 -0.13407291504908808
    outer loop
      vertex -0.035354319959878922 0.02500000037252903 -0.0079002669081091881
      vertex -0.036130450665950775 0.02500000037252903 -0.0026425879914313555
      vertex -0.028042171150445938 0.043750006705522537 -0.0019993176683783531
    endloop
  endfacet
  facet normal -0.90895066842209338 0.39574340052812323 -0.13113292230964338
    outer loop
      vertex -0.035354319959878922 0.02500000037252903 -0.0079002669081091881
      vertex -0.028042171150445938 0.043750006705522537 -0.0019993176683783531
      vertex -0.027465416118502617 0.043750017881393433 -0.0059970738366246223
    endloop
  endfacet
  facet normal -0.88052481031992336 0.39679212955936827 -0.25929146598144076
    outer loop
      vertex -0.026316095143556595 0.04375002533197403 -0.0099000278860330582
      vertex -0.027465416118502617 0.043750017881393433 -0.0059970738366246223
      vertex -0.019576512277126312 0.062500029802322388 -0.0040938812308013439
    endloop
  endfacet
  facet normal -0.88325559089698991 0.39548388821940222 -0.25189691405031622
    outer loop
      vertex -0.026316095143556595 0.04375002533197403 -0.0099000278860330582
      vertex -0.019576512277126312 0.062500029802322388 -0.0040938812308013439
      vertex -0.018791951239109039 0.062500052154064178 -0.0068448442034423351
    endloop
  endfacet
  facet normal -0.87934546316624951 0.39671132972159528 -0.2633850361722504
    outer loop
      vertex -0.033840242773294449 0.02500000037252903 -0.012955212034285069
      vertex -0.035354319959878922 0.02500000037252903 -0.0079002669081091881
      vertex -0.027465416118502617 0.043750017881393433 -0.0059970738366246223
    endloop
  endfacet
  facet normal -0.88094337335761219 0.39578121968134289 -0.2594147241095992
    outer loop
      vertex -0.033840242773294449 0.02500000037252903 -0.012955212034285069
      vertex -0.027465416118502617 0.043750017881393433 -0.0059970738366246223
      vertex -0.026316095143556595 0.04375002533197403 -0.0099000278860330582
    endloop
  endfacet
  facet normal -0.83277401279644681 0.39704505573676618 -0.38580133142057915
    outer loop
      vertex -0.02457871288061142 0.043750036507844925 -0.013650254346430302
      vertex -0.026316095143556595 0.04375002533197403 -0.0099000278860330582
      vertex -0.018791951239109039 0.062500052154064178 -0.0068448442034423351
    endloop
  endfacet
  facet normal -0.83720474513796383 0.39548348616279161 -0.37773142163579926
    outer loop
      vertex -0.02457871288061142 0.043750036507844925 -0.013650254346430302
      vertex -0.018791951239109039 0.062500052154064178 -0.0068448442034423351
      vertex -0.017565581947565079 0.062500067055225372 -0.0095629561692476273
    endloop
  endfacet
  facet normal -0.83062082619337485 0.39694898645563143 -0.39051318191026824
    outer loop
      vertex -0.031591843813657761 0.02500000037252903 -0.017737552523612976
      vertex -0.033840242773294449 0.02500000037252903 -0.012955212034285069
      vertex -0.026316095143556595 0.04375002533197403 -0.0099000278860330582
    endloop
  endfacet
  facet normal -0.83325621585051013 0.3958143361875725 -0.38602472720653436
    outer loop
      vertex -0.031591843813657761 0.02500000037252903 -0.017737552523612976
      vertex -0.026316095143556595 0.04375002533197403 -0.0099000278860330582
      vertex -0.02457871288061142 0.043750036507844925 -0.013650254346430302
    endloop
  endfacet
  facet normal -0.7671751158404293 0.39680859376255373 -0.50396952442722998
    outer loop
      vertex -0.022291814908385277 0.043750043958425522 -0.017131512984633446
      vertex -0.02457871288061142 0.043750036507844925 -0.013650254346430302
      vertex -0.017565581947565079 0.062500067055225372 -0.0095629561692476273
    endloop
  endfacet
  facet normal -0.77074684937314608 0.39581549380116743 -0.49927886901841434
    outer loop
      vertex -0.022291814908385277 0.043750043958425522 -0.017131512984633446
      vertex -0.017565581947565079 0.062500067055225372 -0.0095629561692476273
      vertex -0.015910210087895393 0.062500089406967163 -0.012118369340896606
    endloop
  endfacet
  facet normal -0.76533566716859869 0.39674012850956358 -0.50681218117741678
    outer loop
      vertex -0.02867341972887516 0.02500000037252903 -0.022144656628370285
      vertex -0.031591843813657761 0.02500000037252903 -0.017737552523612976
      vertex -0.02457871288061142 0.043750036507844925 -0.013650254346430302
    endloop
  endfacet
  facet normal -0.76746552462794293 0.39600386334991833 -0.504160300618261
    outer loop
      vertex -0.02867341972887516 0.02500000037252903 -0.022144656628370285
      vertex -0.02457871288061142 0.043750036507844925 -0.013650254346430302
      vertex -0.022291814908385277 0.043750043958425522 -0.017131512984633446
    endloop
  endfacet
  facet normal -0.6853078821908698 0.39655738492570036 -0.61081531338691453
    outer loop
      vertex -0.019566398113965988 0.043750051409006119 -0.020189305767416954
      vertex -0.022291814908385277 0.043750043958425522 -0.017131512984633446
      vertex -0.015910210087895393 0.062500089406967163 -0.012118369340896606
    endloop
  endfacet
  facet normal -0.68649943750048426 0.39628843502001188 -0.60965071851094266
    outer loop
      vertex -0.019566398113965988 0.043750051409006119 -0.020189305767416954
      vertex -0.015910210087895393 0.062500089406967163 -0.012118369340896606
      vertex -0.013911198824644089 0.062500104308128357 -0.014369353652000427
    endloop
  endfacet
  facet normal -0.68467226579862417 0.39653537601922778 -0.61154197240374908
    outer loop
      vertex -0.025221597403287888 0.02500000037252903 -0.02600925974547863
      vertex -0.02867341972887516 0.02500000037252903 -0.022144656628370285
      vertex -0.022291814908385277 0.043750043958425522 -0.017131512984633446
    endloop
  endfacet
  facet normal -0.68538036154775017 0.39633254918062566 -0.61087991492981819
    outer loop
      vertex -0.025221597403287888 0.02500000037252903 -0.02600925974547863
      vertex -0.022291814908385277 0.043750043958425522 -0.017131512984633446
      vertex -0.019566398113965988 0.043750051409006119 -0.020189305767416954
    endloop
  endfacet
  facet normal -0.58714894937667172 0.39619652071349876 -0.70589264638497873
    outer loop
      vertex -0.016297804191708565 0.043750058859586716 -0.022908059880137444
      vertex -0.019566398113965988 0.043750051409006119 -0.020189305767416954
      vertex -0.013911198824644089 0.062500104308128357 -0.014369353652000427
    endloop
  endfacet
  facet normal -0.58502728676430937 0.39661970659607598 -0.7074149292182299
    outer loop
      vertex -0.016297804191708565 0.043750058859586716 -0.022908059880137444
      vertex -0.013911198824644089 0.062500104308128357 -0.014369353652000427
      vertex -0.011505036614835262 0.062500119209289551 -0.016359224915504456
    endloop
  endfacet
  facet normal -0.58829828368433446 0.39623869309154813 -0.70491136145700495
    outer loop
      vertex -0.021090570837259293 0.02500000037252903 -0.029456892982125282
      vertex -0.025221597403287888 0.02500000037252903 -0.02600925974547863
      vertex -0.019566398113965988 0.043750051409006119 -0.020189305767416954
    endloop
  endfacet
  facet normal -0.5870480158972885 0.39656210146756371 -0.70577129915482295
    outer loop
      vertex -0.021090570837259293 0.02500000037252903 -0.029456892982125282
      vertex -0.019566398113965988 0.043750051409006119 -0.020189305767416954
      vertex -0.016297804191708565 0.043750058859586716 -0.022908059880137444
    endloop
  endfacet
  facet normal -0.47573088040966433 0.39593398916549555 -0.78544026230397856
    outer loop
      vertex -0.012731956318020821 0.043750062584877014 -0.025067845359444618
      vertex -0.016297804191708565 0.043750058859586716 -0.022908059880137444
      vertex -0.011505036614835262 0.062500119209289551 -0.016359224915504456
    endloop
  endfacet
  facet normal -0.46942455440986974 0.39702480347528357 -0.78867730609071518
    outer loop
      vertex -0.012731956318020821 0.043750062584877014 -0.025067845359444618
      vertex -0.011505036614835262 0.062500119209289551 -0.016359224915504456
      vertex -0.0088921785354614258 0.062500126659870148 -0.017914406955242157
    endloop
  endfacet
  facet normal -0.47917179440251717 0.39605973964567431 -0.78328224420120274
    outer loop
      vertex -0.016571735963225365 0.02500000037252903 -0.032221283763647079
      vertex -0.021090570837259293 0.02500000037252903 -0.029456892982125282
      vertex -0.016297804191708565 0.043750058859586716 -0.022908059880137444
    endloop
  endfacet
  facet normal -0.47551459837878934 0.39690083822798428 -0.78508317479269796
    outer loop
      vertex -0.016571735963225365 0.02500000037252903 -0.032221283763647079
      vertex -0.016297804191708565 0.043750058859586716 -0.022908059880137444
      vertex -0.012731956318020821 0.043750062584877014 -0.025067845359444618
    endloop
  endfacet
  facet normal -0.3551563633908042 0.39582500883451849 -0.84686865565102398
    outer loop
      vertex -0.0089529864490032196 0.043750066310167313 -0.026652652770280838
      vertex -0.012731956318020821 0.043750062584877014 -0.025067845359444618
      vertex -0.0088921785354614258 0.062500126659870148 -0.017914406955242157
    endloop
  endfacet
  facet normal -0.34648012310286896 0.3971749330825094 -0.84982562730569911
    outer loop
      vertex -0.0089529864490032196 0.043750066310167313 -0.026652652770280838
      vertex -0.0088921785354614258 0.062500126659870148 -0.017914406955242157
      vertex -0.0061684167012572289 0.062500134110450745 -0.01902490109205246
    endloop
  endfacet
  facet normal -0.35984531475725062 0.39599828184632146 -0.8448057233601205
    outer loop
      vertex -0.01173755619674921 0.02500000037252903 -0.034280404448509216
      vertex -0.016571735963225365 0.02500000037252903 -0.032221283763647079
      vertex -0.012731956318020821 0.043750062584877014 -0.025067845359444618
    endloop
  endfacet
  facet normal -0.35495436331179014 0.39703459948934533 -0.84638698405295476
    outer loop
      vertex -0.01173755619674921 0.02500000037252903 -0.034280404448509216
      vertex -0.012731956318020821 0.043750062584877014 -0.025067845359444618
      vertex -0.0089529864490032196 0.043750066310167313 -0.026652652770280838
    endloop
  endfacet
  facet normal -0.22737866944270183 0.3957371354713024 -0.88977022893072499
    outer loop
      vertex -0.0049945726059377193 0.043750070035457611 -0.027664214372634888
      vertex -0.0089529864490032196 0.043750066310167313 -0.026652652770280838
      vertex -0.0061684167012572289 0.062500134110450745 -0.01902490109205246
    endloop
  endfacet
  facet normal -0.2201790930193428 0.39680298754178467 -0.89110524410705483
    outer loop
      vertex -0.0049945726059377193 0.043750070035457611 -0.027664214372634888
      vertex -0.0061684167012572289 0.062500134110450745 -0.01902490109205246
      vertex -0.0034032859839498997 0.062500141561031342 -0.019708121195435524
    endloop
  endfacet
  facet normal -0.23115066676155396 0.39587649978890088 -0.88873571221740466
    outer loop
      vertex -0.0065858596935868263 0.02500000037252903 -0.035620305687189102
      vertex -0.01173755619674921 0.02500000037252903 -0.034280404448509216
      vertex -0.0089529864490032196 0.043750066310167313 -0.026652652770280838
    endloop
  endfacet
  facet normal -0.2272786848548938 0.39667297552202502 -0.88937896866360211
    outer loop
      vertex -0.0065858596935868263 0.02500000037252903 -0.035620305687189102
      vertex -0.0089529864490032196 0.043750066310167313 -0.026652652770280838
      vertex -0.0049945726059377193 0.043750070035457611 -0.027664214372634888
    endloop
  endfacet
  facet normal -0.098992086343046917 0.39580206939555906 -0.91298482391748637
    outer loop
      vertex -0.0010093451710417867 0.043750070035457611 -0.028096320107579231
      vertex -0.0049945726059377193 0.043750070035457611 -0.027664214372634888
      vertex -0.0034032859839498997 0.062500141561031342 -0.019708121195435524
    endloop
  endfacet
  facet normal -0.094088854056655985 0.39652056078227405 -0.91319150916947112
    outer loop
      vertex -0.0010093451710417867 0.043750070035457611 -0.028096320107579231
      vertex -0.0034032859839498997 0.062500141561031342 -0.019708121195435524
      vertex -0.00068471295526251197 0.062500141561031342 -0.019988223910331726
    endloop
  endfacet
  facet normal -0.10150688718387239 0.39588330833895302 -0.91267341258132728
    outer loop
      vertex -0.0013339773286134005 0.02500000037252903 -0.036204416304826736
      vertex -0.0065858596935868263 0.02500000037252903 -0.035620305687189102
      vertex -0.0049945726059377193 0.043750070035457611 -0.027664214372634888
    endloop
  endfacet
  facet normal -0.098964095736707891 0.39640399847851243 -0.91272667198086377
    outer loop
      vertex -0.0013339773286134005 0.02500000037252903 -0.036204416304826736
      vertex -0.0049945726059377193 0.043750070035457611 -0.027664214372634888
      vertex -0.0010093451710417867 0.043750070035457611 -0.028096320107579231
    endloop
  endfacet
  facet normal 0.033280081157985933 0.39620403931148213 -0.91755915091692231
    outer loop
      vertex 0.0030089512001723051 0.043750070035457611 -0.027950575575232506
      vertex -0.0010093451710417867 0.043750070035457611 -0.028096320107579231
      vertex -0.00068471295526251197 0.062500141561031342 -0.019988223910331726
    endloop
  endfacet
  facet normal 0.031339037348631124 0.39590541702383997 -0.91775637590225467
    outer loop
      vertex 0.0030089512001723051 0.043750070035457611 -0.027950575575232506
      vertex -0.00068471295526251197 0.062500141561031342 -0.019988223910331726
      vertex 0.0020442798268049955 0.062500141561031342 -0.019895035773515701
    endloop
  endfacet
  facet normal 0.03428128511892127 0.39617603381969391 -0.91753438285303057
    outer loop
      vertex 0.003973622340708971 0.02500000037252903 -0.036006111651659012
      vertex -0.0013339773286134005 0.02500000037252903 -0.036204416304826736
      vertex -0.0010093451710417867 0.043750070035457611 -0.028096320107579231
    endloop
  endfacet
  facet normal 0.033283820365965389 0.39596488901288734 -0.91766224394973217
    outer loop
      vertex 0.003973622340708971 0.02500000037252903 -0.036006111651659012
      vertex -0.0010093451710417867 0.043750070035457611 -0.028096320107579231
      vertex 0.0030089512001723051 0.043750070035457611 -0.027950575575232506
    endloop
  endfacet
  facet normal 0.16314222434129852 0.39652386529627159 -0.90341210911049763
    outer loop
      vertex 0.0069758491590619087 0.043750070035457611 -0.027234215289354324
      vertex 0.0030089512001723051 0.043750070035457611 -0.027950575575232506
      vertex 0.0020442798268049955 0.062500141561031342 -0.019895035773515701
    endloop
  endfacet
  facet normal 0.15691429843884061 0.39549384408112415 -0.90496548124189902
    outer loop
      vertex 0.0069758491590619087 0.043750070035457611 -0.027234215289354324
      vertex 0.0020442798268049955 0.062500141561031342 -0.019895035773515701
      vertex 0.0047757364809513092 0.062500134110450745 -0.019421424716711044
    endloop
  endfacet
  facet normal 0.16644834317726737 0.39644879583112402 -0.90284179197553449
    outer loop
      vertex 0.0091759618371725082 0.02500000037252903 -0.035047005861997604
      vertex 0.003973622340708971 0.02500000037252903 -0.036006111651659012
      vertex 0.0030089512001723051 0.043750070035457611 -0.027950575575232506
    endloop
  endfacet
  facet normal 0.16320342238096733 0.39572563342385364 -0.90375099777230083
    outer loop
      vertex 0.0091759618371725082 0.02500000037252903 -0.035047005861997604
      vertex 0.0030089512001723051 0.043750070035457611 -0.027950575575232506
      vertex 0.0069758491590619087 0.043750070035457611 -0.027234215289354324
    endloop
  endfacet
  facet normal 0.29122299318963163 0.39687133477136699 -0.87044948841070935
    outer loop
      vertex 0.01086552906781435 0.043750066310167313 -0.025932861492037773
      vertex 0.0069758491590619087 0.043750070035457611 -0.027234215289354324
      vertex 0.0047757364809513092 0.062500134110450745 -0.019421424716711044
    endloop
  endfacet
  facet normal 0.28357272488660901 0.39548149829070428 -0.873602251719925
    outer loop
      vertex 0.01086552906781435 0.043750066310167313 -0.025932861492037773
      vertex 0.0047757364809513092 0.062500134110450745 -0.019421424716711044
      vertex 0.0075384625233709812 0.062500134110450745 -0.018524639308452606
    endloop
  endfacet
  facet normal 0.29551934358432091 0.39678744447809672 -0.86903857306337862
    outer loop
      vertex 0.014192595146596432 0.02500000037252903 -0.03334108367562294
      vertex 0.0091759618371725082 0.02500000037252903 -0.035047005861997604
      vertex 0.0069758491590619087 0.043750070035457611 -0.027234215289354324
    endloop
  endfacet
  facet normal 0.29137057365887348 0.39579382033205901 -0.87089060196597179
    outer loop
      vertex 0.014192595146596432 0.02500000037252903 -0.03334108367562294
      vertex 0.0069758491590619087 0.043750070035457611 -0.027234215289354324
      vertex 0.01086552906781435 0.043750066310167313 -0.025932861492037773
    endloop
  endfacet
  facet normal 0.41690047656814233 0.39703415219342159 -0.81765388437241993
    outer loop
      vertex 0.01457184087485075 0.043750058859586716 -0.024043112993240356
      vertex 0.01086552906781435 0.043750066310167313 -0.025932861492037773
      vertex 0.0075384625233709812 0.062500134110450745 -0.018524639308452606
    endloop
  endfacet
  facet normal 0.40927728999270635 0.39552029291504798 -0.82222612327061262
    outer loop
      vertex 0.01457184087485075 0.043750058859586716 -0.024043112993240356
      vertex 0.0075384625233709812 0.062500134110450745 -0.018524639308452606
      vertex 0.010237532667815685 0.062500119209289551 -0.017181137576699257
    endloop
  endfacet
  facet normal 0.42139929501465623 0.39693840377252798 -0.81539103365910792
    outer loop
      vertex 0.018906150013208389 0.02500000037252903 -0.030905088409781456
      vertex 0.014192595146596432 0.02500000037252903 -0.03334108367562294
      vertex 0.01086552906781435 0.043750066310167313 -0.025932861492037773
    endloop
  endfacet
  facet normal 0.41713610737728013 0.39583283972321753 -0.81811602534040595
    outer loop
      vertex 0.018906150013208389 0.02500000037252903 -0.030905088409781456
      vertex 0.01086552906781435 0.043750066310167313 -0.025932861492037773
      vertex 0.01457184087485075 0.043750058859586716 -0.024043112993240356
    endloop
  endfacet
  facet normal 0.53237421157073905 0.3967321218891614 -0.74778427525306879
    outer loop
      vertex 0.017948949709534645 0.043750055134296417 -0.021638831123709679
      vertex 0.01457184087485075 0.043750058859586716 -0.024043112993240356
      vertex 0.010237532667815685 0.062500119209289551 -0.017181137576699257
    endloop
  endfacet
  facet normal 0.52866153876712441 0.39593088191868026 -0.75083667609638816
    outer loop
      vertex 0.017948949709534645 0.043750055134296417 -0.021638831123709679
      vertex 0.010237532667815685 0.062500119209289551 -0.017181137576699257
      vertex 0.012719876132905483 0.062500111758708954 -0.015433331951498985
    endloop
  endfacet
  facet normal 0.53464208376382916 0.39667479841975872 -0.74619497892126996
    outer loop
      vertex 0.023178024217486382 0.02500000037252903 -0.027844328433275223
      vertex 0.018906150013208389 0.02500000037252903 -0.030905088409781456
      vertex 0.01457184087485075 0.043750058859586716 -0.024043112993240356
    endloop
  endfacet
  facet normal 0.53253803919301101 0.39607790368099366 -0.74801439226002375
    outer loop
      vertex 0.023178024217486382 0.02500000037252903 -0.027844328433275223
      vertex 0.01457184087485075 0.043750058859586716 -0.024043112993240356
      vertex 0.017948949709534645 0.043750055134296417 -0.021638831123709679
    endloop
  endfacet
  facet normal 0.63682724221023324 0.39645307501157462 -0.66126849531243803
    outer loop
      vertex 0.020958296954631805 0.04375004768371582 -0.018740717321634293
      vertex 0.017948949709534645 0.043750055134296417 -0.021638831123709679
      vertex 0.012719876132905483 0.062500111758708954 -0.015433331951498985
    endloop
  endfacet
  facet normal 0.63648051410335738 0.39636853316258608 -0.66165288564719948
    outer loop
      vertex 0.020958296954631805 0.04375004768371582 -0.018740717321634293
      vertex 0.012719876132905483 0.062500111758708954 -0.015433331951498985
      vertex 0.014934785664081573 0.06250009685754776 -0.013302696868777275
    endloop
  endfacet
  facet normal 0.63704568959750796 0.39644579803732266 -0.66106241655670173
    outer loop
      vertex 0.026981808245182037 0.02500000037252903 -0.02417873777449131
      vertex 0.023178024217486382 0.02500000037252903 -0.027844328433275223
      vertex 0.017948949709534645 0.043750055134296417 -0.021638831123709679
    endloop
  endfacet
  facet normal 0.63684859967867913 0.39638176963343513 -0.6612906726921014
    outer loop
      vertex 0.026981808245182037 0.02500000037252903 -0.02417873777449131
      vertex 0.017948949709534645 0.043750055134296417 -0.021638831123709679
      vertex 0.020958296954631805 0.04375004768371582 -0.018740717321634293
    endloop
  endfacet
  facet normal 0.72808573536517041 0.39614846475255988 -0.55942609505809504
    outer loop
      vertex 0.023498065769672394 0.043750040233135223 -0.015435246750712395
      vertex 0.020958296954631805 0.04375004768371582 -0.018740717321634293
      vertex 0.014934785664081573 0.06250009685754776 -0.013302696868777275
    endloop
  endfacet
  facet normal 0.72998344808797144 0.39668945273226114 -0.55656234476343736
    outer loop
      vertex 0.023498065769672394 0.043750040233135223 -0.015435246750712395
      vertex 0.014934785664081573 0.06250009685754776 -0.013302696868777275
      vertex 0.016789741814136505 0.062500074505805969 -0.010869764722883701
    endloop
  endfacet
  facet normal 0.72685422387054432 0.39620507976474212 -0.56098526897786061
    outer loop
      vertex 0.030206391587853432 0.02500000037252903 -0.020000727847218513
      vertex 0.026981808245182037 0.02500000037252903 -0.02417873777449131
      vertex 0.020958296954631805 0.04375004768371582 -0.018740717321634293
    endloop
  endfacet
  facet normal 0.7279243692080748 0.3966197989608381 -0.5593021077962167
    outer loop
      vertex 0.030206391587853432 0.02500000037252903 -0.020000727847218513
      vertex 0.020958296954631805 0.04375004768371582 -0.018740717321634293
      vertex 0.023498065769672394 0.043750040233135223 -0.015435246750712395
    endloop
  endfacet
  facet normal 0.80263924253823704 0.39581366286678676 -0.4462082368419738
    outer loop
      vertex 0.025514461100101471 0.043750029057264328 -0.011808165349066257
      vertex 0.023498065769672394 0.043750040233135223 -0.015435246750712395
      vertex 0.016789741814136505 0.062500074505805969 -0.010869764722883701
    endloop
  endfacet
  facet normal 0.80601825336370081 0.39702437516940164 -0.43898316683658295
    outer loop
      vertex 0.025514461100101471 0.043750029057264328 -0.011808165349066257
      vertex 0.016789741814136505 0.062500074505805969 -0.010869764722883701
      vertex 0.018230495974421501 0.062500059604644775 -0.0082244053483009338
    endloop
  endfacet
  facet normal 0.80037102034958807 0.39595862108982993 -0.45013664610782345
    outer loop
      vertex 0.03279842808842659 0.02500000037252903 -0.015391925349831581
      vertex 0.030206391587853432 0.02500000037252903 -0.020000727847218513
      vertex 0.023498065769672394 0.043750040233135223 -0.015435246750712395
    endloop
  endfacet
  facet normal 0.80223252771062303 0.39689156163440537 -0.44598212944738858
    outer loop
      vertex 0.03279842808842659 0.02500000037252903 -0.015391925349831581
      vertex 0.023498065769672394 0.043750040233135223 -0.015435246750712395
      vertex 0.025514461100101471 0.043750029057264328 -0.011808165349066257
    endloop
  endfacet
  facet normal 0.85881995811058176 0.39579468822827657 -0.32523044802296741
    outer loop
      vertex 0.026940658688545227 0.043750021606683731 -0.0080420849844813347
      vertex 0.025514461100101471 0.043750029057264328 -0.011808165349066257
      vertex 0.018230495974421501 0.062500059604644775 -0.0082244053483009338
    endloop
  endfacet
  facet normal 0.86162438891652138 0.39718737593020059 -0.31598354518220251
    outer loop
      vertex 0.026940658688545227 0.043750021606683731 -0.0080420849844813347
      vertex 0.018230495974421501 0.062500059604644775 -0.0082244053483009338
      vertex 0.019220063462853432 0.062500044703483582 -0.0055260700173676014
    endloop
  endfacet
  facet normal 0.85683761691631988 0.39597489582734713 -0.33020172639113138
    outer loop
      vertex 0.034661252051591873 0.02500000037252903 -0.010558099485933781
      vertex 0.03279842808842659 0.02500000037252903 -0.015391925349831581
      vertex 0.025514461100101471 0.043750029057264328 -0.011808165349066257
    endloop
  endfacet
  facet normal 0.85831683321751318 0.39704063751389379 -0.32503991443824265
    outer loop
      vertex 0.034661252051591873 0.02500000037252903 -0.010558099485933781
      vertex 0.025514461100101471 0.043750029057264328 -0.011808165349066257
      vertex 0.026940658688545227 0.043750021606683731 -0.0080420849844813347
    endloop
  endfacet
  facet normal 0.89650968634629236 0.39584590482114179 -0.19893818618758013
    outer loop
      vertex 0.027809366583824158 0.043750010430812836 -0.0041272980161011219
      vertex 0.026940658688545227 0.043750021606683731 -0.0080420849844813347
      vertex 0.019220063462853432 0.062500044703483582 -0.0055260700173676014
    endloop
  endfacet
  facet normal 0.89758989093659203 0.39686480545601172 -0.19191329781648553
    outer loop
      vertex 0.027809366583824158 0.043750010430812836 -0.0041272980161011219
      vertex 0.019220063462853432 0.062500044703483582 -0.0055260700173676014
      vertex 0.019804837182164192 0.062500022351741791 -0.0027910948265343904
    endloop
  endfacet
  facet normal 0.89562389180889213 0.3959769083597392 -0.20263299945210467
    outer loop
      vertex 0.035813894122838974 0.02500000037252903 -0.0054635009728372097
      vertex 0.034661252051591873 0.02500000037252903 -0.010558099485933781
      vertex 0.026940658688545227 0.043750021606683731 -0.0080420849844813347
    endloop
  endfacet
  facet normal 0.89613384399659157 0.39673783418214442 -0.19885478262378731
    outer loop
      vertex 0.035813894122838974 0.02500000037252903 -0.0054635009728372097
      vertex 0.026940658688545227 0.043750021606683731 -0.0080420849844813347
      vertex 0.027809366583824158 0.043750010430812836 -0.0041272980161011219
    endloop
  endfacet
  facet normal 0.91582452259227465 0.39580723898081011 -0.067838583335887881
    outer loop
      vertex 0.028114998713135719 0.043750002980232239 -1.2913078535348177e-06
      vertex 0.027809366583824158 0.043750010430812836 -0.0041272980161011219
      vertex 0.019804837182164192 0.062500022351741791 -0.0027910948265343904
    endloop
  endfacet
  facet normal 0.9158488284943328 0.39638084969360743 -0.064055798658139207
    outer loop
      vertex 0.028114998713135719 0.043750002980232239 -1.2913078535348177e-06
      vertex 0.019804837182164192 0.062500022351741791 -0.0027910948265343904
      vertex 0.019999995827674866 0.0625 -9.1874875352004892e-07
    endloop
  endfacet
  facet normal 0.91565283538863573 0.39587071858676504 -0.069758578041342958
    outer loop
      vertex 0.036230001598596573 0.02500000037252903 -1.6638668967061676e-06
      vertex 0.035813894122838974 0.02500000037252903 -0.0054635009728372097
      vertex 0.027809366583824158 0.043750010430812836 -0.0041272980161011219
    endloop
  endfacet
  facet normal 0.91562034647656321 0.39628191938672236 -0.067823458222901672
    outer loop
      vertex 0.036230001598596573 0.02500000037252903 -1.6638668967061676e-06
      vertex 0.027809366583824158 0.043750010430812836 -0.0041272980161011219
      vertex 0.028114998713135719 0.043750002980232239 -1.2913078535348177e-06
    endloop
  endfacet
endsolid OBJECT
