solid OBJECT
  facet normal 0.9958196644681766 -3.1248319904367541e-07 0.09134109621846391
    outer loop
      vertex 0.019999995827674866 0.13750000298023224 -6.6211742932864581e-07
      vertex 0.019666099920868874 0.13749995827674866 0.0036395406350493431
      vertex 0.019666099920868874 0.062499955296516418 0.0036392840556800365
    endloop
  endfacet
  facet normal 0.9958196645867573 -3.125464694987567e-07 0.091341094925671842
    outer loop
      vertex 0.019999995827674866 0.13750000298023224 -6.6211742932864581e-07
      vertex 0.019666099920868874 0.062499955296516418 0.0036392840556800365
      vertex 0.019999995827674866 0.0625 -9.1874875352004892e-07
    endloop
  endfacet
  facet normal 0.96106325926463665 -9.6920385143194939e-07 0.27632844893476716
    outer loop
      vertex 0.019666099920868874 0.13749995827674866 0.0036395406350493431
      vertex 0.018595755100250244 0.13749991357326508 0.0073621724732220173
      vertex 0.018595753237605095 0.06249990314245224 0.0073619158938527107
    endloop
  endfacet
  facet normal 0.96106313155950374 -9.4533720390395773e-07 0.27632889308964143
    outer loop
      vertex 0.019666099920868874 0.13749995827674866 0.0036395406350493431
      vertex 0.018595753237605095 0.06249990314245224 0.0073619158938527107
      vertex 0.019666099920868874 0.062499955296516418 0.0036392840556800365
    endloop
  endfacet
  facet normal 0.9101787004627705 -1.44223266594654e-06 0.41421580513280992
    outer loop
      vertex 0.018595755100250244 0.13749991357326508 0.0073621724732220173
      vertex 0.017765667289495468 0.13749988377094269 0.0091861691325902939
      vertex 0.017765665426850319 0.062499880790710449 0.0091859120875597
    endloop
  endfacet
  facet normal 0.9101786605923774 -1.4396610315559869e-06 0.41421589274217074
    outer loop
      vertex 0.018595755100250244 0.13749991357326508 0.0073621724732220173
      vertex 0.017765665426850319 0.062499880790710449 0.0091859120875597
      vertex 0.018595753237605095 0.06249990314245224 0.0073619158938527107
    endloop
  endfacet
  facet normal 0.86375842373387413 -1.7422153341045833e-06 0.50390612759296549
    outer loop
      vertex 0.017765667289495468 0.13749988377094269 0.0091861691325902939
      vertex 0.016739895567297935 0.1374998539686203 0.010944470763206482
      vertex 0.016739893704652786 0.062499858438968658 0.010944214649498463
    endloop
  endfacet
  facet normal 0.86375853990177709 -1.7484718032364056e-06 0.50390592846650728
    outer loop
      vertex 0.017765667289495468 0.13749988377094269 0.0091861691325902939
      vertex 0.016739893704652786 0.062499858438968658 0.010944214649498463
      vertex 0.017765665426850319 0.062499880790710449 0.0091859120875597
    endloop
  endfacet
  facet normal 0.80774278844514513 -2.023203645983736e-06 0.58953506062894023
    outer loop
      vertex 0.016739895567297935 0.1374998539686203 0.010944470763206482
      vertex 0.015527047216892242 0.13749983906745911 0.012606237083673477
      vertex 0.015527046285569668 0.062499836087226868 0.012605980969965458
    endloop
  endfacet
  facet normal 0.80774300401836086 -2.0332330988750408e-06 0.58953476526432291
    outer loop
      vertex 0.016739895567297935 0.1374998539686203 0.010944470763206482
      vertex 0.015527046285569668 0.062499836087226868 0.012605980969965458
      vertex 0.016739893704652786 0.062499858438968658 0.010944214649498463
    endloop
  endfacet
  facet normal 0.74272288972018574 -2.3041173185481405e-06 0.66959891657647419
    outer loop
      vertex 0.015527047216892242 0.13749983906745911 0.012606237083673477
      vertex 0.014142117463052273 0.13749980926513672 0.014142408967018127
      vertex 0.014142116531729698 0.062499813735485077 0.014142151921987534
    endloop
  endfacet
  facet normal 0.74272268782364259 -2.2958030177229256e-06 0.66959914052121772
    outer loop
      vertex 0.015527047216892242 0.13749983906745911 0.012606237083673477
      vertex 0.014142116531729698 0.062499813735485077 0.014142151921987534
      vertex 0.015527046285569668 0.062499836087226868 0.012605980969965458
    endloop
  endfacet
  facet normal 0.66959725122179092 -2.5446066839463429e-06 0.74272439111001787
    outer loop
      vertex 0.014142117463052273 0.13749980926513672 0.014142408967018127
      vertex 0.012605942785739899 0.13749979436397552 0.015527334995567799
      vertex 0.012605941854417324 0.062499791383743286 0.015527078881859779
    endloop
  endfacet
  facet normal 0.66959749962339499 -2.5538290527420787e-06 0.74272416716542589
    outer loop
      vertex 0.014142117463052273 0.13749980926513672 0.014142408967018127
      vertex 0.012605941854417324 0.062499791383743286 0.015527078881859779
      vertex 0.014142116531729698 0.062499813735485077 0.014142151921987534
    endloop
  endfacet
  facet normal 0.58953293715438837 -2.7556155225199898e-06 0.80774433826708214
    outer loop
      vertex 0.012605942785739899 0.13749979436397552 0.015527334995567799
      vertex 0.01094417367130518 0.13749977946281433 0.016740178689360619
      vertex 0.010944172739982605 0.062499776482582092 0.016739923506975174
    endloop
  endfacet
  facet normal 0.5895332325139967 -2.7656450634764365e-06 0.80774412269848739
    outer loop
      vertex 0.012605942785739899 0.13749979436397552 0.015527334995567799
      vertex 0.010944172739982605 0.062499776482582092 0.016739923506975174
      vertex 0.012605941854417324 0.062499791383743286 0.015527078881859779
    endloop
  endfacet
  facet normal 0.50390416488666101 -2.9451402100050072e-06 0.86375956874653637
    outer loop
      vertex 0.01094417367130518 0.13749977946281433 0.016740178689360619
      vertex 0.0091858692467212677 0.13749976456165314 0.017765946686267853
      vertex 0.0091858683153986931 0.062499761581420898 0.017765691503882408
    endloop
  endfacet
  facet normal 0.50390416488666101 -2.9451402100050072e-06 0.86375956874653637
    outer loop
      vertex 0.01094417367130518 0.13749977946281433 0.016740178689360619
      vertex 0.0091858683153986931 0.062499761581420898 0.017765691503882408
      vertex 0.010944172739982605 0.062499776482582092 0.016739923506975174
    endloop
  endfacet
  facet normal 0.41421382716572758 -3.1245723192237715e-06 0.91017960061460268
    outer loop
      vertex 0.0091858692467212677 0.13749976456165314 0.017765946686267853
      vertex 0.0073618702590465546 0.13749974966049194 0.01859603077173233
      vertex 0.0073618693277239799 0.062499754130840302 0.018595773726701736
    endloop
  endfacet
  facet normal 0.4142130571615758 -3.1019686375387898e-06 0.91017995103563931
    outer loop
      vertex 0.0091858692467212677 0.13749976456165314 0.017765946686267853
      vertex 0.0073618693277239799 0.062499754130840302 0.018595773726701736
      vertex 0.0091858683153986931 0.062499761581420898 0.017765691503882408
    endloop
  endfacet
  facet normal 0.27632644884591701 -3.2972539533026643e-06 0.96106383433013087
    outer loop
      vertex 0.0073618702590465546 0.13749974966049194 0.01859603077173233
      vertex 0.0036392351612448692 0.13749973475933075 0.019666368141770363
      vertex 0.0036392342299222946 0.062499739229679108 0.019666111096739769
    endloop
  endfacet
  facet normal 0.27632644884591701 -3.2972539533026643e-06 0.96106383433013087
    outer loop
      vertex 0.0073618702590465546 0.13749974966049194 0.01859603077173233
      vertex 0.0036392342299222946 0.062499739229679108 0.019666111096739769
      vertex 0.0073618693277239799 0.062499754130840302 0.018595773726701736
    endloop
  endfacet
  facet normal 0.091362482819755578 -3.4141185586250699e-06 0.99581770255471636
    outer loop
      vertex 0.0036392351612448692 0.13749973475933075 0.019666368141770363
      vertex -2.709527535671441e-08 0.13749973475933075 0.020000256597995758
      vertex -2.8068434687611443e-08 0.062499731779098511 0.019999999552965164
    endloop
  endfacet
  facet normal 0.091362481785155727 -3.4140679339643704e-06 0.9958177026496372
    outer loop
      vertex 0.0036392351612448692 0.13749973475933075 0.019666368141770363
      vertex -2.8068434687611443e-08 0.062499731779098511 0.019999999552965164
      vertex 0.0036392342299222946 0.062499739229679108 0.019666111096739769
    endloop
  endfacet
  facet normal -0.091364520438080868 -3.4117982556950251e-06 0.99581751560889864
    outer loop
      vertex -2.709527535671441e-08 0.13749973475933075 0.020000256597995758
      vertex -0.0036392887122929096 0.13749973475933075 0.019666360691189766
      vertex -0.0036392896436154842 0.062499739229679108 0.019666103646159172
    endloop
  endfacet
  facet normal -0.09136452148656149 -3.4117469511530733e-06 0.9958175155127027
    outer loop
      vertex -2.709527535671441e-08 0.13749973475933075 0.020000256597995758
      vertex -0.0036392896436154842 0.062499739229679108 0.019666103646159172
      vertex -2.8068434687611443e-08 0.062499731779098511 0.019999999552965164
    endloop
  endfacet
  facet normal -0.27632882925984303 -3.2886732607590681e-06 0.96106314990695041
    outer loop
      vertex -0.0036392887122929096 0.13749973475933075 0.019666360691189766
      vertex -0.0073619214817881584 0.13749974966049194 0.018596014007925987
      vertex -0.0073619228787720203 0.062499754130840302 0.018595756962895393
    endloop
  endfacet
  facet normal -0.27632879733344867 -3.2903889678967735e-06 0.96106315908655193
    outer loop
      vertex -0.0036392887122929096 0.13749973475933075 0.019666360691189766
      vertex -0.0073619228787720203 0.062499754130840302 0.018595756962895393
      vertex -0.0036392896436154842 0.062499739229679108 0.019666103646159172
    endloop
  endfacet
  facet normal -0.41421571756741116 -3.1142819255839415e-06 0.91017874030896595
    outer loop
      vertex -0.0073619214817881584 0.13749974966049194 0.018596014007925987
      vertex -0.0091859186068177223 0.13749976456165314 0.017765926197171211
      vertex -0.0091859195381402969 0.062499761581420898 0.017765669152140617
    endloop
  endfacet
  facet normal -0.4142158051612867 -3.1117103068960542e-06 0.91017870044563454
    outer loop
      vertex -0.0073619214817881584 0.13749974966049194 0.018596014007925987
      vertex -0.0091859195381402969 0.062499761581420898 0.017765669152140617
      vertex -0.0073619228787720203 0.062499754130840302 0.018595756962895393
    endloop
  endfacet
  facet normal -0.50390572936856948 -2.9540741677993833e-06 0.86375865604971125
    outer loop
      vertex -0.0091859186068177223 0.13749976456165314 0.017765926197171211
      vertex -0.01094422210007906 0.13749977946281433 0.016740154474973679
      vertex -0.010944223031401634 0.062499776482582092 0.016739897429943085
    endloop
  endfacet
  facet normal -0.50390572936856948 -2.9540741677993833e-06 0.86375865604971125
    outer loop
      vertex -0.0091859186068177223 0.13749976456165314 0.017765926197171211
      vertex -0.010944223031401634 0.062499776482582092 0.016739897429943085
      vertex -0.0091859195381402969 0.062499761581420898 0.017765669152140617
    endloop
  endfacet
  facet normal -0.58953506065589001 -2.7610297972599086e-06 0.8077427884232905
    outer loop
      vertex -0.01094422210007906 0.13749977946281433 0.016740154474973679
      vertex -0.012605988420546055 0.13749979436397552 0.015527306124567986
      vertex -0.012605989351868629 0.062499798834323883 0.015527049079537392
    endloop
  endfacet
  facet normal -0.58953506066396688 -2.7610295229559487e-06 0.80774278841739577
    outer loop
      vertex -0.01094422210007906 0.13749977946281433 0.016740154474973679
      vertex -0.012605989351868629 0.062499798834323883 0.015527049079537392
      vertex -0.010944223031401634 0.062499776482582092 0.016739897429943085
    endloop
  endfacet
  facet normal -0.66959916500798089 -2.5279713924931995e-06 0.7427226657469288
    outer loop
      vertex -0.012605988420546055 0.13749979436397552 0.015527306124567986
      vertex -0.014142160303890705 0.13749980926513672 0.014142375439405441
      vertex -0.01414216123521328 0.062499813735485077 0.014142119325697422
    endloop
  endfacet
  facet normal -0.66959891661433146 -2.5371950220945411e-06 0.74272288968529598
    outer loop
      vertex -0.012605988420546055 0.13749979436397552 0.015527306124567986
      vertex -0.01414216123521328 0.062499813735485077 0.014142119325697422
      vertex -0.012605989351868629 0.062499798834323883 0.015527049079537392
    endloop
  endfacet
  facet normal -0.74272416720637446 -2.2773516790256585e-06 0.66959749957897174
    outer loop
      vertex -0.014142160303890705 0.13749980926513672 0.014142375439405441
      vertex -0.015527087263762951 0.13749983906745911 0.012606200762093067
      vertex -0.015527088195085526 0.062499836087226868 0.012605944648385048
    endloop
  endfacet
  facet normal -0.74272416720088141 -2.2773519052811102e-06 0.66959749958506476
    outer loop
      vertex -0.014142160303890705 0.13749980926513672 0.014142375439405441
      vertex -0.015527088195085526 0.062499836087226868 0.012605944648385048
      vertex -0.01414216123521328 0.062499813735485077 0.014142119325697422
    endloop
  endfacet
  facet normal -0.80774374981858243 -2.0004291743659573e-06 0.5895337434150939
    outer loop
      vertex -0.015527087263762951 0.13749983906745911 0.012606200762093067
      vertex -0.01673993282020092 0.1374998539686203 0.010944432578980923
      vertex -0.016739934682846069 0.062499858438968658 0.010944175533950329
    endloop
  endfacet
  facet normal -0.80774369158755766 -2.0031389007753888e-06 0.58953382319973113
    outer loop
      vertex -0.015527087263762951 0.13749983906745911 0.012606200762093067
      vertex -0.016739934682846069 0.062499858438968658 0.010944175533950329
      vertex -0.015527088195085526 0.062499836087226868 0.012605944648385048
    endloop
  endfacet
  facet normal -0.8637595687724724 -1.7055623842115507e-06 0.503904164847924
    outer loop
      vertex -0.01673993282020092 0.1374998539686203 0.010944432578980923
      vertex -0.017765700817108154 0.13749988377094269 0.0091861281543970108
      vertex -0.017765702679753304 0.062499880790710449 0.0091858711093664169
    endloop
  endfacet
  facet normal -0.8637595687693268 -1.7055625536625189e-06 0.50390416485331602
    outer loop
      vertex -0.01673993282020092 0.1374998539686203 0.010944432578980923
      vertex -0.017765702679753304 0.062499880790710449 0.0091858711093664169
      vertex -0.016739934682846069 0.062499858438968658 0.010944175533950329
    endloop
  endfacet
  facet normal -0.91017960063637415 -1.394445023314175e-06 0.41421382712732552
    outer loop
      vertex -0.017765700817108154 0.13749988377094269 0.0091861281543970108
      vertex -0.018595784902572632 0.13749991357326508 0.0073621291667222977
      vertex -0.018595786765217781 0.062499910593032837 0.0073618725873529911
    endloop
  endfacet
  facet normal -0.91017956076861517 -1.3970171023640818e-06 0.41421391473138497
    outer loop
      vertex -0.017765700817108154 0.13749988377094269 0.0091861281543970108
      vertex -0.018595786765217781 0.062499910593032837 0.0073618725873529911
      vertex -0.017765702679753304 0.062499880790710449 0.0091858711093664169
    endloop
  endfacet
  facet normal -0.96106369286752158 -9.4533061915958321e-07 0.27632694087068072
    outer loop
      vertex -0.018595784902572632 0.13749991357326508 0.0073621291667222977
      vertex -0.019666124135255814 0.13749995827674866 0.0036394947674125433
      vertex -0.019666124135255814 0.062499962747097015 0.0036392381880432367
    endloop
  endfacet
  facet normal -0.96106382057269701 -9.2146072852677724e-07 0.27632649671242476
    outer loop
      vertex -0.018595784902572632 0.13749991357326508 0.0073621291667222977
      vertex -0.019666124135255814 0.062499962747097015 0.0036392381880432367
      vertex -0.018595786765217781 0.062499910593032837 0.0073618725873529911
    endloop
  endfacet
  facet normal -0.99581770067127062 -2.8788836690972945e-07 0.091362503411962268
    outer loop
      vertex -0.019666124135255814 0.13749995827674866 0.0036394947674125433
      vertex -0.020000012591481209 0.13750000298023224 2.3333817011916835e-07
      vertex -0.020000014454126358 0.062500014901161194 -2.3293141637736881e-08
    endloop
  endfacet
  facet normal -0.99581765441906733 -3.1255819000597051e-07 0.091363007542493241
    outer loop
      vertex -0.019666124135255814 0.13749995827674866 0.0036394947674125433
      vertex -0.020000014454126358 0.062500014901161194 -2.3293141637736881e-08
      vertex -0.019666124135255814 0.062499962747097015 0.0036392381880432367
    endloop
  endfacet
  facet normal -0.99581751325022172 3.3757845018633669e-07 -0.091364546209295988
    outer loop
      vertex -0.020000012591481209 0.13750000298023224 2.3333817011916835e-07
      vertex -0.019666116684675217 0.13750006258487701 -0.0036390272434800863
      vertex -0.019666118547320366 0.062500059604644775 -0.0036392840556800365
    endloop
  endfacet
  facet normal -0.99581751366326898 3.3735814492517691e-07 -0.091364541707334254
    outer loop
      vertex -0.020000012591481209 0.13750000298023224 2.3333817011916835e-07
      vertex -0.019666118547320366 0.062500059604644775 -0.0036392840556800365
      vertex -0.020000014454126358 0.062500014901161194 -2.3293141637736881e-08
    endloop
  endfacet
  facet normal -0.96106326385443075 9.6920389321852477e-07 -0.27632843297158111
    outer loop
      vertex -0.019666116684675217 0.13750006258487701 -0.0036390272434800863
      vertex -0.018595771864056587 0.1375001072883606 -0.0073616593144834042
      vertex -0.018595773726701736 0.062500104308128357 -0.0073619158938527107
    endloop
  endfacet
  facet normal -0.96106325926463876 9.7006178408974092e-07 -0.27632844893475744
    outer loop
      vertex -0.019666116684675217 0.13750006258487701 -0.0036390272434800863
      vertex -0.018595773726701736 0.062500104308128357 -0.0073619158938527107
      vertex -0.019666118547320366 0.062500059604644775 -0.0036392840556800365
    endloop
  endfacet
  facet normal -0.9101787004627705 1.44223266594654e-06 -0.41421580513280992
    outer loop
      vertex -0.018595771864056587 0.1375001072883606 -0.0073616593144834042
      vertex -0.017765684053301811 0.13750013709068298 -0.0091856559738516808
      vertex -0.01776568591594696 0.062500134110450745 -0.0091859130188822746
    endloop
  endfacet
  facet normal -0.91017874033089652 1.4396605771386318e-06 -0.41421571752842679
    outer loop
      vertex -0.018595771864056587 0.1375001072883606 -0.0073616593144834042
      vertex -0.01776568591594696 0.062500134110450745 -0.0091859130188822746
      vertex -0.018595773726701736 0.062500104308128357 -0.0073619158938527107
    endloop
  endfacet
  facet normal -0.86375842372746126 1.7484728302383612e-06 -0.50390612760393616
    outer loop
      vertex -0.017765684053301811 0.13750013709068298 -0.0091856559738516808
      vertex -0.016739912331104279 0.13750015199184418 -0.010943957604467869
      vertex -0.016739914193749428 0.062500163912773132 -0.010944214649498463
    endloop
  endfacet
  facet normal -0.86375842373391076 1.7484724828103058e-06 -0.50390612759288078
    outer loop
      vertex -0.017765684053301811 0.13750013709068298 -0.0091856559738516808
      vertex -0.016739914193749428 0.062500163912773132 -0.010944214649498463
      vertex -0.01776568591594696 0.062500134110450745 -0.0091859130188822746
    endloop
  endfacet
  facet normal -0.80774278845383485 2.0305242764586034e-06 -0.58953506061700889
    outer loop
      vertex -0.016739912331104279 0.13750015199184418 -0.010943957604467869
      vertex -0.015527063980698586 0.13750018179416656 -0.012605723924934864
      vertex -0.01552706491202116 0.062500178813934326 -0.012605980969965458
    endloop
  endfacet
  facet normal -0.80774257287634943 2.0405559430188253e-06 -0.58953535598718021
    outer loop
      vertex -0.016739912331104279 0.13750015199184418 -0.010943957604467869
      vertex -0.01552706491202116 0.062500178813934326 -0.012605980969965458
      vertex -0.016739914193749428 0.062500163912773132 -0.010944214649498463
    endloop
  endfacet
  facet normal -0.74272288970904432 2.2958027116696095e-06 -0.66959891658886073
    outer loop
      vertex -0.015527063980698586 0.13750018179416656 -0.012605723924934864
      vertex -0.014142134226858616 0.13750019669532776 -0.014141895808279514
      vertex -0.01414213515818119 0.062500208616256714 -0.014142151921987534
    endloop
  endfacet
  facet normal -0.74272268782924622 2.3041178546446656e-06 -0.66959914051497349
    outer loop
      vertex -0.015527063980698586 0.13750018179416656 -0.012605723924934864
      vertex -0.01414213515818119 0.062500208616256714 -0.014142151921987534
      vertex -0.01552706491202116 0.062500178813934326 -0.012605980969965458
    endloop
  endfacet
  facet normal -0.66959725123549008 2.5538295634330361e-06 -0.74272439109763588
    outer loop
      vertex -0.014142134226858616 0.13750019669532776 -0.014141895808279514
      vertex -0.012605959549546242 0.13750022649765015 -0.015526821836829185
      vertex -0.012605960480868816 0.062500223517417908 -0.015527078881859779
    endloop
  endfacet
  facet normal -0.6695974996165287 2.5446064278828843e-06 -0.7427241671716478
    outer loop
      vertex -0.014142134226858616 0.13750019669532776 -0.014141895808279514
      vertex -0.012605960480868816 0.062500223517417908 -0.015527078881859779
      vertex -0.01414213515818119 0.062500208616256714 -0.014142151921987534
    endloop
  endfacet
  facet normal -0.589533232514039 2.7756753342240741e-06 -0.80774412269842222
    outer loop
      vertex -0.012605959549546242 0.13750022649765015 -0.015526821836829185
      vertex -0.010944190435111523 0.13750024139881134 -0.01673966646194458
      vertex -0.010944191366434097 0.062500238418579102 -0.016739923506975174
    endloop
  endfacet
  facet normal -0.589533232514039 2.7756753342240741e-06 -0.80774412269842222
    outer loop
      vertex -0.012605959549546242 0.13750022649765015 -0.015526821836829185
      vertex -0.010944191366434097 0.062500238418579102 -0.016739923506975174
      vertex -0.012605960480868816 0.062500223517417908 -0.015527078881859779
    endloop
  endfacet
  facet normal -0.5039041648867647 2.9665919100965039e-06 -0.8637595687464027
    outer loop
      vertex -0.010944190435111523 0.13750024139881134 -0.01673966646194458
      vertex -0.0091858860105276108 0.13750025629997253 -0.017765434458851814
      vertex -0.0091858869418501854 0.062500253319740295 -0.017765691503882408
    endloop
  endfacet
  facet normal -0.5039041648867647 2.9665919100965039e-06 -0.8637595687464027
    outer loop
      vertex -0.010944190435111523 0.13750024139881134 -0.01673966646194458
      vertex -0.0091858869418501854 0.062500253319740295 -0.017765691503882408
      vertex -0.010944191366434097 0.062500238418579102 -0.016739923506975174
    endloop
  endfacet
  facet normal -0.41421382714461014 3.1019680711551443e-06 -0.91017960062429037
    outer loop
      vertex -0.0091858860105276108 0.13750025629997253 -0.017765434458851814
      vertex -0.0073618870228528976 0.13750025629997253 -0.018595518544316292
      vertex -0.0073618879541754723 0.062500268220901489 -0.018595773726701736
    endloop
  endfacet
  facet normal -0.41421305717219647 3.1245732002335176e-06 -0.91017995103072868
    outer loop
      vertex -0.0091858860105276108 0.13750025629997253 -0.017765434458851814
      vertex -0.0073618879541754723 0.062500268220901489 -0.018595773726701736
      vertex -0.0091858869418501854 0.062500253319740295 -0.017765691503882408
    endloop
  endfacet
  facet normal -0.27632646480892775 3.2733859831224843e-06 -0.96106382974050431
    outer loop
      vertex -0.0073618870228528976 0.13750025629997253 -0.018595518544316292
      vertex -0.003639252157881856 0.13750027120113373 -0.019665855914354324
      vertex -0.0036392530892044306 0.062500283122062683 -0.019666111096739769
    endloop
  endfacet
  facet normal -0.27632646480892775 3.2733859831224843e-06 -0.96106382974050431
    outer loop
      vertex -0.0073618870228528976 0.13750025629997253 -0.018595518544316292
      vertex -0.0036392530892044306 0.062500283122062683 -0.019666111096739769
      vertex -0.0073618879541754723 0.062500268220901489 -0.018595773726701736
    endloop
  endfacet
  facet normal -0.09136197585746339 3.414118711455117e-06 -0.99581774906644649
    outer loop
      vertex -0.003639252157881856 0.13750027120113373 -0.019665855914354324
      vertex 1.0160964514227544e-08 0.13750028610229492 -0.01999974250793457
      vertex 9.1878051833305108e-09 0.062500283122062683 -0.019999999552965164
    endloop
  endfacet
  facet normal -0.091362482309677501 3.3893368688556013e-06 -0.99581770260159885
    outer loop
      vertex -0.003639252157881856 0.13750027120113373 -0.019665855914354324
      vertex 9.1878051833305108e-09 0.062500283122062683 -0.019999999552965164
      vertex -0.0036392530892044306 0.062500283122062683 -0.019666111096739769
    endloop
  endfacet
  facet normal 0.091361534737281008 3.4117995705278193e-06 -0.99581778953722666
    outer loop
      vertex 1.0160964514227544e-08 0.13750028610229492 -0.01999974250793457
      vertex 0.0036391480825841427 0.13750027120113373 -0.019665868952870369
      vertex 0.0036391471512615681 0.062500283122062683 -0.019666125997900963
    endloop
  endfacet
  facet normal 0.091361533681871318 3.4117479294082546e-06 -0.99581778963405554
    outer loop
      vertex 1.0160964514227544e-08 0.13750028610229492 -0.01999974250793457
      vertex 0.0036391471512615681 0.062500283122062683 -0.019666125997900963
      vertex 9.1878051833305108e-09 0.062500283122062683 -0.019999999552965164
    endloop
  endfacet
  facet normal 0.2763189832079046 3.2903990875047101e-06 -0.96106598082968409
    outer loop
      vertex 0.0036391480825841427 0.13750027120113373 -0.019665868952870369
      vertex 0.0073616588488221169 0.13750025629997253 -0.018595598638057709
      vertex 0.0073616579174995422 0.062500268220901489 -0.018595855683088303
    endloop
  endfacet
  facet normal 0.2763189832079046 3.2903990875047101e-06 -0.96106598082968409
    outer loop
      vertex 0.0036391480825841427 0.13750027120113373 -0.019665868952870369
      vertex 0.0073616579174995422 0.062500268220901489 -0.018595855683088303
      vertex 0.0036391471512615681 0.062500283122062683 -0.019666125997900963
    endloop
  endfacet
  facet normal 0.41420260418696342 3.1143025412875001e-06 -0.91018470799889772
    outer loop
      vertex 0.0073616588488221169 0.13750025629997253 -0.018595598638057709
      vertex 0.0091856028884649277 0.13750025629997253 -0.01776556670665741
      vertex 0.0091856019571423531 0.062500253319740295 -0.017765823751688004
    endloop
  endfacet
  facet normal 0.41420260420804145 3.1143031600107849e-06 -0.91018470798930573
    outer loop
      vertex 0.0073616588488221169 0.13750025629997253 -0.018595598638057709
      vertex 0.0091856019571423531 0.062500253319740295 -0.017765823751688004
      vertex 0.0073616579174995422 0.062500268220901489 -0.018595855683088303
    endloop
  endfacet
  facet normal 0.50388934538015651 2.9326552142690023e-06 -0.86376821405036508
    outer loop
      vertex 0.0091856028884649277 0.13750025629997253 -0.01776556670665741
      vertex 0.010943861678242683 0.13750024139881134 -0.016739865764975548
      vertex 0.010943860746920109 0.062500238418579102 -0.016740120947360992
    endloop
  endfacet
  facet normal 0.50389002809406269 2.9541057556153949e-06 -0.86376781578074413
    outer loop
      vertex 0.0091856028884649277 0.13750025629997253 -0.01776556670665741
      vertex 0.010943860746920109 0.062500238418579102 -0.016740120947360992
      vertex 0.0091856019571423531 0.062500253319740295 -0.017765823751688004
    endloop
  endfacet
  facet normal 0.58951736356363882 2.761074009358365e-06 -0.80775570443628131
    outer loop
      vertex 0.010943861678242683 0.13750024139881134 -0.016739865764975548
      vertex 0.012605597265064716 0.13750022649765015 -0.015527095645666122
      vertex 0.012605596333742142 0.062500223517417908 -0.015527352690696716
    endloop
  endfacet
  facet normal 0.58951677280685633 2.7410146545081127e-06 -0.80775613558293446
    outer loop
      vertex 0.010943861678242683 0.13750024139881134 -0.016739865764975548
      vertex 0.012605596333742142 0.062500223517417908 -0.015527352690696716
      vertex 0.010943860746920109 0.062500238418579102 -0.016740120947360992
    endloop
  endfacet
  facet normal 0.66957962208201394 2.5372546250819431e-06 -0.74274028414114568
    outer loop
      vertex 0.012605597265064716 0.13750022649765015 -0.015527095645666122
      vertex 0.014141753315925598 0.13750019669532776 -0.014142252504825592
      vertex 0.014141752384603024 0.06250019371509552 -0.014142509549856186
    endloop
  endfacet
  facet normal 0.66957962208201394 2.5372546250819431e-06 -0.74274028414114568
    outer loop
      vertex 0.012605597265064716 0.13750022649765015 -0.015527095645666122
      vertex 0.014141752384603024 0.06250019371509552 -0.014142509549856186
      vertex 0.012605596333742142 0.062500223517417908 -0.015527352690696716
    endloop
  endfacet
  facet normal 0.7427045829159532 2.2857411874166724e-06 -0.66961922202877
    outer loop
      vertex 0.014141753315925598 0.13750019669532776 -0.014142252504825592
      vertex 0.015526680275797844 0.13750018179416656 -0.012606168165802956
      vertex 0.015526679344475269 0.062500178813934326 -0.012606425210833549
    endloop
  endfacet
  facet normal 0.7427045829159532 2.2857411874166724e-06 -0.66961922202877
    outer loop
      vertex 0.014141753315925598 0.13750019669532776 -0.014142252504825592
      vertex 0.015526679344475269 0.062500178813934326 -0.012606425210833549
      vertex 0.014141752384603024 0.06250019371509552 -0.014142509549856186
    endloop
  endfacet
  facet normal 0.80772482282929969 2.01325784673579e-06 -0.58955967516556196
    outer loop
      vertex 0.015526680275797844 0.13750018179416656 -0.012606168165802956
      vertex 0.016739541664719582 0.13750015199184418 -0.010944490320980549
      vertex 0.016739541664719582 0.062500163912773132 -0.010944746434688568
    endloop
  endfacet
  facet normal 0.80772476459299625 2.0105486259910351e-06 -0.58955975495207125
    outer loop
      vertex 0.015526680275797844 0.13750018179416656 -0.012606168165802956
      vertex 0.016739541664719582 0.062500163912773132 -0.010944746434688568
      vertex 0.015526679344475269 0.062500178813934326 -0.012606425210833549
    endloop
  endfacet
  facet normal 0.86374159514408411 1.7271196713935515e-06 -0.50393497280400201
    outer loop
      vertex 0.016739541664719582 0.13750015199184418 -0.010944490320980549
      vertex 0.017765343189239502 0.13750013709068298 -0.0091862725093960762
      vertex 0.017765343189239502 0.062500134110450745 -0.0091865295544266701
    endloop
  endfacet
  facet normal 0.86374147896261422 1.720863013343109e-06 -0.50393517193833048
    outer loop
      vertex 0.016739541664719582 0.13750015199184418 -0.010944490320980549
      vertex 0.017765343189239502 0.062500134110450745 -0.0091865295544266701
      vertex 0.016739541664719582 0.062500163912773132 -0.010944746434688568
    endloop
  endfacet
  facet normal 0.91016359158474525 1.4171699162968608e-06 -0.41424900307852136
    outer loop
      vertex 0.017765343189239502 0.13750013709068298 -0.0091862725093960762
      vertex 0.018595475703477859 0.1375001072883606 -0.0073623540811240673
      vertex 0.018595475703477859 0.062500104308128357 -0.0073626106604933739
    endloop
  endfacet
  facet normal 0.91016363146033541 1.419741612244357e-06 -0.4142489154661953
    outer loop
      vertex 0.017765343189239502 0.13750013709068298 -0.0091862725093960762
      vertex 0.018595475703477859 0.062500104308128357 -0.0073626106604933739
      vertex 0.017765343189239502 0.062500134110450745 -0.0091865295544266701
    endloop
  endfacet
  facet normal 0.96105210495273274 9.2160040600294374e-07 -0.27636724039775817
    outer loop
      vertex 0.018595475703477859 0.1375001072883606 -0.0073623540811240673
      vertex 0.019665947183966637 0.13750006258487701 -0.0036398475058376789
      vertex 0.019665945321321487 0.062500059604644775 -0.0036401040852069855
    endloop
  endfacet
  facet normal 0.9610522326774581 9.4546687279007992e-07 -0.27636679624147875
    outer loop
      vertex 0.018595475703477859 0.1375001072883606 -0.0073623540811240673
      vertex 0.019665945321321487 0.062500059604644775 -0.0036401040852069855
      vertex 0.018595475703477859 0.062500104308128357 -0.0073626106604933739
    endloop
  endfacet
  facet normal 0.99581353800049077 3.1277493539683665e-07 -0.091407863637912506
    outer loop
      vertex 0.019665947183966637 0.13750006258487701 -0.0036398475058376789
      vertex 0.019999995827674866 0.13750000298023224 -6.6211742932864581e-07
      vertex 0.019999995827674866 0.0625 -9.1874875352004892e-07
    endloop
  endfacet
  facet normal 0.99581349148714771 2.8798205318547718e-07 -0.091408370361215283
    outer loop
      vertex 0.019665947183966637 0.13750006258487701 -0.0036398475058376789
      vertex 0.019999995827674866 0.0625 -9.1874875352004892e-07
      vertex 0.019665945321321487 0.062500059604644775 -0.0036401040852069855
    endloop
  endfacet
endsolid OBJECT
